<svg width="25" height="25" viewBox="0 0 25 25" fill="none" xmlns="http://www.w3.org/2000/svg">
<rect width="25" height="25" rx="8" fill="#6640FB"/>
<g clip-path="url(#clip0_23_38)">
<path d="M13.6572 11.9702C13.6401 11.9157 13.6082 11.867 13.5651 11.8295C13.5221 11.792 13.4695 11.7671 13.4131 11.7576C13.3568 11.7481 13.2989 11.7543 13.2459 11.7756C13.1929 11.7969 13.1468 11.8324 13.1127 11.8783C12.8373 12.2328 12.6638 12.6558 12.6107 13.1016L12.6248 13.2996C12.6236 13.7114 12.5376 14.1185 12.3721 14.4956C12.2067 14.8728 11.9653 15.2118 11.6632 15.4916C10.9818 16.1053 10.0935 16.4385 9.17656 16.424C8.25966 16.4096 7.3822 16.0487 6.7205 15.4138C6.16027 14.8601 5.84025 14.1084 5.82955 13.3208C5.8346 12.912 5.92314 12.5086 6.08973 12.1353C6.25631 11.762 6.49743 11.4267 6.79829 11.15C7.46079 10.546 8.32724 10.2151 9.22366 10.2236C9.81713 10.2225 10.402 10.3657 10.9278 10.6408C11.1229 10.3301 11.3505 10.0409 11.6066 9.77817L11.7197 9.66503C10.9519 9.19407 10.0679 8.94674 9.16709 8.95085C8.57537 8.93142 7.98563 9.02894 7.43166 9.23783C6.8777 9.44672 6.3704 9.76287 5.93883 10.1682C5.50726 10.5735 5.15991 11.0599 4.91668 11.5997C4.67345 12.1395 4.53913 12.7219 4.5214 13.3137C4.52103 13.87 4.63223 14.4207 4.84842 14.9332C5.06461 15.4457 5.3814 15.9097 5.78005 16.2977C6.22708 16.7403 6.7569 17.0904 7.33927 17.3282C7.92163 17.566 8.54513 17.6868 9.17416 17.6836C10.3702 17.7213 11.5324 17.2833 12.4059 16.4654C13.2794 15.6476 13.793 14.5167 13.834 13.3208C13.8497 12.8639 13.7899 12.4076 13.6572 11.9702Z" fill="white"/>
<path d="M20.0353 13.3137C20.0357 12.7575 19.9245 12.2068 19.7083 11.6942C19.4921 11.1817 19.1753 10.7177 18.7767 10.3297C17.8744 9.44026 16.6566 8.94447 15.3896 8.95087C14.1936 8.91315 13.0314 9.35124 12.1579 10.1691C11.2844 10.9869 10.7708 12.1178 10.7298 13.3137C10.7363 13.7717 10.8175 14.2254 10.9702 14.6572C10.9873 14.7106 11.0186 14.7584 11.0607 14.7954C11.1028 14.8325 11.1541 14.8574 11.2093 14.8676C11.2644 14.8777 11.3213 14.8727 11.3738 14.8531C11.4264 14.8335 11.4726 14.8 11.5076 14.7562C11.7882 14.3993 11.9622 13.9703 12.0097 13.5188L11.9955 13.3208C11.9986 12.9097 12.0862 12.5035 12.2529 12.1277C12.4195 11.7518 12.6617 11.4142 12.9643 11.1358C13.6456 10.5221 14.534 10.189 15.4509 10.2034C16.3678 10.2178 17.2452 10.5787 17.9069 11.2136C18.4672 11.7673 18.7872 12.5191 18.7979 13.3067C18.7928 13.7154 18.7043 14.1188 18.5377 14.4921C18.3711 14.8654 18.13 15.2007 17.8291 15.4775C17.1666 16.0814 16.3002 16.4123 15.4038 16.4038C14.8103 16.4049 14.2255 16.2618 13.6996 15.9866C13.4955 16.3114 13.256 16.6126 12.9855 16.8846L12.8723 16.9977C13.6402 17.4687 14.5242 17.716 15.425 17.7119C16.0167 17.7266 16.6055 17.6244 17.1576 17.4111C17.7097 17.1979 18.2144 16.8779 18.6426 16.4693C19.0709 16.0608 19.4143 15.5717 19.6533 15.0303C19.8923 14.4888 20.0221 13.9055 20.0353 13.3137Z" fill="white"/>
</g>
<defs>
<clipPath id="clip0_23_38">
<rect width="16" height="16" fill="white" transform="translate(12.3137 2) rotate(45)"/>
</clipPath>
</defs>
</svg>
