<svg width="154" height="318" viewBox="0 0 154 318" fill="none" xmlns="http://www.w3.org/2000/svg">
<g opacity="0.3">
<rect x="0.5" y="0.5" width="153" height="317" rx="26.5" stroke="black"/>
<path d="M104 18.5H51C51 18.5 46.5 17.5 46.25 11.75C46 6 41.5 5 41.5 5H27C13.5241 7.27909 8.68885 11.7294 5.5 26V292.5C8.52867 304.195 12.5893 308.737 25.5 312H127C140.17 309.227 145.006 305.189 148 292.5V26C145.5 14 141 8 128.5 5H112.5C112.5 5 108 6 107.25 11.75C106.5 17.5 104 18.5 104 18.5Z" stroke="black"/>
</g>
</svg>
